<svg width="48" height="48" viewBox="0 0 48 48" fill="none" xmlns="http://www.w3.org/2000/svg">
<rect width="48" height="48" rx="24" fill="#E9EBF3"/>
<path d="M18.6667 16.1666C18.12 16.1666 17.6667 15.7133 17.6667 15.1666V11.1666C17.6667 10.62 18.12 10.1666 18.6667 10.1666C19.2133 10.1666 19.6667 10.62 19.6667 11.1666V15.1666C19.6667 15.7133 19.2133 16.1666 18.6667 16.1666Z" fill="#1E3A8A"/>
<path d="M29.3333 16.1666C28.7867 16.1666 28.3333 15.7133 28.3333 15.1666V11.1666C28.3333 10.62 28.7867 10.1666 29.3333 10.1666C29.88 10.1666 30.3333 10.62 30.3333 11.1666V15.1666C30.3333 15.7133 29.88 16.1666 29.3333 16.1666Z" fill="#1E3A8A"/>
<path d="M29.3333 38.8333H18.6667C13.8 38.8333 11 36.0333 11 31.1666V19.8333C11 14.9666 13.8 12.1666 18.6667 12.1666H29.3333C34.2 12.1666 37 14.9666 37 19.8333V31.1666C37 36.0333 34.2 38.8333 29.3333 38.8333ZM18.6667 14.1666C14.8533 14.1666 13 16.02 13 19.8333V31.1666C13 34.98 14.8533 36.8333 18.6667 36.8333H29.3333C33.1467 36.8333 35 34.98 35 31.1666V19.8333C35 16.02 33.1467 14.1666 29.3333 14.1666H18.6667Z" fill="#1E3A8A"/>
<path d="M29.3333 24.1666H18.6667C18.12 24.1666 17.6667 23.7133 17.6667 23.1666C17.6667 22.62 18.12 22.1666 18.6667 22.1666H29.3333C29.88 22.1666 30.3333 22.62 30.3333 23.1666C30.3333 23.7133 29.88 24.1666 29.3333 24.1666Z" fill="#1E3A8A"/>
<path d="M24 30.8334H18.6667C18.12 30.8334 17.6667 30.38 17.6667 29.8334C17.6667 29.2867 18.12 28.8334 18.6667 28.8334H24C24.5467 28.8334 25 29.2867 25 29.8334C25 30.38 24.5467 30.8334 24 30.8334Z" fill="#1E3A8A"/>
</svg>
