<svg width="48" height="48" viewBox="0 0 48 48" fill="none" xmlns="http://www.w3.org/2000/svg">
<rect width="48" height="48" rx="24" fill="#E9EBF3"/>
<path d="M31.9998 19.0467C31.9598 19.0467 31.9331 19.0467 31.8931 19.0467H31.8264C29.3064 18.9667 27.4264 17.0201 27.4264 14.6201C27.4264 12.1667 29.4264 10.1801 31.8664 10.1801C34.3064 10.1801 36.3064 12.1801 36.3064 14.6201C36.2931 17.0334 34.4131 18.9801 32.0131 19.0601C32.0131 19.0467 32.0131 19.0467 31.9998 19.0467ZM31.8664 12.1667C30.5198 12.1667 29.4264 13.2601 29.4264 14.6067C29.4264 15.9267 30.4531 16.9934 31.7731 17.0467C31.7864 17.0334 31.8931 17.0334 32.0131 17.0467C33.3064 16.9801 34.3064 15.9134 34.3198 14.6067C34.3198 13.2601 33.2264 12.1667 31.8664 12.1667Z" fill="#1E3A8A"/>
<path d="M32.0133 28.8733C31.4933 28.8733 30.9733 28.8333 30.4533 28.74C29.9067 28.6467 29.5467 28.1267 29.64 27.58C29.7333 27.0333 30.2533 26.6733 30.8 26.7667C32.44 27.0467 34.1733 26.74 35.3333 25.9667C35.96 25.5533 36.2933 25.0333 36.2933 24.5133C36.2933 23.9933 35.9467 23.4867 35.3333 23.0733C34.1733 22.3 32.4133 21.9933 30.76 22.2867C30.2133 22.3933 29.6933 22.02 29.6 21.4733C29.5067 20.9267 29.8667 20.4067 30.4133 20.3133C32.5867 19.9267 34.84 20.34 36.44 21.4067C37.6133 22.1933 38.2933 23.3133 38.2933 24.5133C38.2933 25.7 37.6267 26.8333 36.44 27.6333C35.2267 28.4333 33.6533 28.8733 32.0133 28.8733Z" fill="#1E3A8A"/>
<path d="M15.96 19.0466C15.9467 19.0466 15.9333 19.0466 15.9333 19.0466C13.5333 18.9666 11.6533 17.02 11.64 14.62C11.64 12.1666 13.64 10.1666 16.08 10.1666C18.52 10.1666 20.52 12.1666 20.52 14.6066C20.52 17.02 18.64 18.9666 16.24 19.0466L15.96 18.0466L16.0533 19.0466C16.0267 19.0466 15.9867 19.0466 15.96 19.0466ZM16.0933 17.0466C16.1733 17.0466 16.24 17.0466 16.32 17.06C17.5067 17.0066 18.5467 15.94 18.5467 14.62C18.5467 13.2733 17.4533 12.18 16.1067 12.18C14.76 12.18 13.6667 13.2733 13.6667 14.62C13.6667 15.9266 14.68 16.98 15.9733 17.06C15.9867 17.0466 16.04 17.0466 16.0933 17.0466Z" fill="#1E3A8A"/>
<path d="M15.9467 28.8733C14.3067 28.8733 12.7333 28.4333 11.52 27.6333C10.3467 26.8467 9.66666 25.7133 9.66666 24.5133C9.66666 23.3267 10.3467 22.1933 11.52 21.4067C13.12 20.34 15.3733 19.9267 17.5467 20.3133C18.0933 20.4067 18.4533 20.9267 18.36 21.4733C18.2667 22.02 17.7467 22.3933 17.2 22.2867C15.5467 21.9933 13.8 22.3 12.6267 23.0733C12 23.4867 11.6667 23.9933 11.6667 24.5133C11.6667 25.0333 12.0133 25.5533 12.6267 25.9667C13.7867 26.74 15.52 27.0467 17.16 26.7667C17.7067 26.6733 18.2267 27.0467 18.32 27.58C18.4133 28.1267 18.0533 28.6467 17.5067 28.74C16.9867 28.8333 16.4667 28.8733 15.9467 28.8733Z" fill="#1E3A8A"/>
<path d="M23.9998 29.0067C23.9598 29.0067 23.9331 29.0067 23.8931 29.0067H23.8264C21.3064 28.9267 19.4264 26.98 19.4264 24.58C19.4264 22.1267 21.4264 20.14 23.8664 20.14C26.3064 20.14 28.3064 22.14 28.3064 24.58C28.2931 26.9934 26.4131 28.94 24.0131 29.02C24.0131 29.0067 24.0131 29.0067 23.9998 29.0067ZM23.8664 22.1267C22.5198 22.1267 21.4264 23.22 21.4264 24.5667C21.4264 25.8867 22.4531 26.9534 23.7731 27.0067C23.7864 26.9934 23.8931 26.9934 24.0131 27.0067C25.3064 26.94 26.3064 25.8734 26.3198 24.5667C26.3198 23.2334 25.2264 22.1267 23.8664 22.1267Z" fill="#1E3A8A"/>
<path d="M23.9997 38.8466C22.3997 38.8466 20.7997 38.4333 19.5597 37.5933C18.3864 36.8066 17.7064 35.6866 17.7064 34.4866C17.7064 33.2999 18.3731 32.1533 19.5597 31.3666C22.0531 29.7133 25.9597 29.7133 28.4397 31.3666C29.6131 32.1533 30.2931 33.2733 30.2931 34.4733C30.2931 35.6599 29.6264 36.8066 28.4397 37.5933C27.1997 38.4199 25.5997 38.8466 23.9997 38.8466ZM20.6664 33.0466C20.0397 33.4599 19.7064 33.9799 19.7064 34.4999C19.7064 35.0199 20.0531 35.5266 20.6664 35.9399C22.4664 37.1533 25.5197 37.1533 27.3197 35.9399C27.9464 35.5266 28.2797 35.0066 28.2797 34.4866C28.2797 33.9666 27.9331 33.4599 27.3197 33.0466C25.5331 31.8333 22.4797 31.8466 20.6664 33.0466Z" fill="#1E3A8A"/>
</svg>
