<svg width="48" height="48" viewBox="0 0 48 48" fill="none" xmlns="http://www.w3.org/2000/svg">
<rect width="48" height="48" rx="24" fill="#E9EBF3"/>
<path d="M20 32.1667C19.4533 32.1667 19 31.7133 19 31.1667V25.58L18.04 26.54C17.6533 26.9267 17.0133 26.9267 16.6267 26.54C16.24 26.1533 16.24 25.5133 16.6267 25.1267L19.2933 22.46C19.5733 22.18 20.0133 22.0867 20.3867 22.2467C20.76 22.3933 21 22.7667 21 23.1667V31.1667C21 31.7133 20.5467 32.1667 20 32.1667Z" fill="#1E3A8A"/>
<path d="M22.6667 26.8333C22.4133 26.8333 22.16 26.74 21.96 26.54L19.2933 23.8733C18.9067 23.4866 18.9067 22.8466 19.2933 22.46C19.68 22.0733 20.32 22.0733 20.7067 22.46L23.3733 25.1266C23.76 25.5133 23.76 26.1533 23.3733 26.54C23.1733 26.74 22.92 26.8333 22.6667 26.8333Z" fill="#1E3A8A"/>
<path d="M28 38.8334H20C12.76 38.8334 9.66666 35.74 9.66666 28.5V20.5C9.66666 13.26 12.76 10.1667 20 10.1667H26.6667C27.2133 10.1667 27.6667 10.62 27.6667 11.1667C27.6667 11.7134 27.2133 12.1667 26.6667 12.1667H20C13.8533 12.1667 11.6667 14.3534 11.6667 20.5V28.5C11.6667 34.6467 13.8533 36.8334 20 36.8334H28C34.1467 36.8334 36.3333 34.6467 36.3333 28.5V21.8334C36.3333 21.2867 36.7867 20.8334 37.3333 20.8334C37.88 20.8334 38.3333 21.2867 38.3333 21.8334V28.5C38.3333 35.74 35.24 38.8334 28 38.8334Z" fill="#1E3A8A"/>
<path d="M37.3333 22.8333H32C27.44 22.8333 25.6667 21.06 25.6667 16.5V11.1667C25.6667 10.7667 25.9067 10.3933 26.28 10.2467C26.6533 10.0867 27.08 10.18 27.3733 10.46L38.04 21.1267C38.32 21.4067 38.4133 21.8467 38.2533 22.22C38.0933 22.5933 37.7333 22.8333 37.3333 22.8333ZM27.6667 13.58V16.5C27.6667 19.94 28.56 20.8333 32 20.8333H34.92L27.6667 13.58Z" fill="#1E3A8A"/>
</svg>
