<svg width="48" height="48" viewBox="0 0 48 48" fill="none" xmlns="http://www.w3.org/2000/svg">
<path d="M35.4287 23.9998H19.4287M35.4287 33.1426H19.4287M35.4287 14.8569H19.4287" stroke="#374151" stroke-linecap="round" stroke-linejoin="round"/>
<path fill-rule="evenodd" clip-rule="evenodd" d="M12.5696 17.1427C13.7124 17.1427 14.8553 15.9999 14.8553 14.857C14.8553 13.7141 13.7124 12.5713 12.5696 12.5713C11.4267 12.5713 10.2861 13.7141 10.2861 14.857C10.2861 15.9999 11.4267 17.1427 12.5696 17.1427ZM12.5696 26.2856C13.7124 26.2856 14.8553 25.1427 14.8553 23.9999C14.8553 22.857 13.7124 21.7141 12.5696 21.7141C11.4267 21.7141 10.2861 22.857 10.2861 23.9999C10.2861 25.1427 11.4267 26.2856 12.5696 26.2856ZM12.5696 35.4284C13.7124 35.4284 14.8553 34.2856 14.8553 33.1427C14.8553 31.9999 13.7124 30.857 12.5696 30.857C11.4267 30.857 10.2861 31.9999 10.2861 33.1427C10.2861 34.2856 11.4267 35.4284 12.5696 35.4284Z" fill="#374151"/>
</svg>
