<svg width="24" height="25" viewBox="0 0 24 25" fill="none" xmlns="http://www.w3.org/2000/svg">
<path d="M9.46992 15.78C9.27992 15.78 9.08992 15.71 8.93992 15.56C8.11992 14.74 7.66992 13.65 7.66992 12.5C7.66992 10.11 9.60992 8.16998 11.9999 8.16998C13.1499 8.16998 14.2399 8.61998 15.0599 9.43998C15.1999 9.57998 15.2799 9.76998 15.2799 9.96998C15.2799 10.17 15.1999 10.36 15.0599 10.5L9.99992 15.56C9.84992 15.71 9.65992 15.78 9.46992 15.78ZM11.9999 9.66998C10.4399 9.66998 9.16992 10.94 9.16992 12.5C9.16992 13 9.29992 13.48 9.53992 13.9L13.3999 10.04C12.9799 9.79998 12.4999 9.66998 11.9999 9.66998Z" fill="#1E3A8A"/>
<path d="M5.59984 19.01C5.42984 19.01 5.24984 18.95 5.10984 18.83C4.03984 17.92 3.07984 16.8 2.25984 15.5C1.19984 13.85 1.19984 11.16 2.25984 9.49998C4.69984 5.67998 8.24984 3.47998 11.9998 3.47998C14.1998 3.47998 16.3698 4.23998 18.2698 5.66998C18.5998 5.91998 18.6698 6.38998 18.4198 6.71998C18.1698 7.04998 17.6998 7.11998 17.3698 6.86998C15.7298 5.62998 13.8698 4.97998 11.9998 4.97998C8.76984 4.97998 5.67984 6.91998 3.51984 10.31C2.76984 11.48 2.76984 13.52 3.51984 14.69C4.26984 15.86 5.12984 16.87 6.07984 17.69C6.38984 17.96 6.42984 18.43 6.15984 18.75C6.01984 18.92 5.80984 19.01 5.59984 19.01Z" fill="#1E3A8A"/>
<path d="M12.0001 21.52C10.6701 21.52 9.37006 21.25 8.12006 20.72C7.74006 20.56 7.56006 20.12 7.72006 19.74C7.88006 19.36 8.32006 19.18 8.70006 19.34C9.76006 19.79 10.8701 20.02 11.9901 20.02C15.2201 20.02 18.3101 18.08 20.4701 14.69C21.2201 13.52 21.2201 11.48 20.4701 10.31C20.1601 9.82 19.8201 9.35 19.4601 8.91C19.2001 8.59 19.2501 8.12 19.5701 7.85C19.8901 7.59 20.3601 7.63 20.6301 7.96C21.0201 8.44 21.4001 8.96 21.7401 9.5C22.8001 11.15 22.8001 13.84 21.7401 15.5C19.3001 19.32 15.7501 21.52 12.0001 21.52Z" fill="#1E3A8A"/>
<path d="M12.6901 16.77C12.3401 16.77 12.0201 16.52 11.9501 16.16C11.8701 15.75 12.1401 15.36 12.5501 15.29C13.6501 15.09 14.5701 14.17 14.7701 13.07C14.8501 12.66 15.2401 12.4 15.6501 12.47C16.0601 12.55 16.3301 12.94 16.2501 13.35C15.9301 15.08 14.5501 16.45 12.8301 16.77C12.7801 16.76 12.7401 16.77 12.6901 16.77Z" fill="#1E3A8A"/>
<path d="M1.99994 23.25C1.80994 23.25 1.61994 23.18 1.46994 23.03C1.17994 22.74 1.17994 22.26 1.46994 21.97L8.93994 14.5C9.22994 14.21 9.70994 14.21 9.99994 14.5C10.2899 14.79 10.2899 15.27 9.99994 15.56L2.52994 23.03C2.37994 23.18 2.18994 23.25 1.99994 23.25Z" fill="#1E3A8A"/>
<path d="M14.5302 10.72C14.3402 10.72 14.1502 10.65 14.0002 10.5C13.7102 10.21 13.7102 9.73 14.0002 9.44L21.4702 1.97C21.7602 1.68 22.2402 1.68 22.5302 1.97C22.8202 2.26 22.8202 2.74 22.5302 3.03L15.0602 10.5C14.9102 10.65 14.7202 10.72 14.5302 10.72Z" fill="#1E3A8A"/>
</svg>
