<svg width="56" height="57" viewBox="0 0 56 57" fill="none" xmlns="http://www.w3.org/2000/svg">
<circle cx="28" cy="28.5" r="28" fill="#F0F2F5"/>
<path d="M24.9999 34.25C24.5899 34.25 24.2499 33.91 24.2499 33.5V29.31L23.5299 30.03C23.2399 30.32 22.7599 30.32 22.4699 30.03C22.1799 29.74 22.1799 29.26 22.4699 28.97L24.4699 26.97C24.6799 26.76 25.0099 26.69 25.2899 26.81C25.5699 26.92 25.7499 27.2 25.7499 27.5V33.5C25.7499 33.91 25.4099 34.25 24.9999 34.25Z" fill="#292D32"/>
<path d="M26.9999 30.25C26.8099 30.25 26.6199 30.18 26.4699 30.03L24.4699 28.03C24.1799 27.74 24.1799 27.26 24.4699 26.97C24.7599 26.68 25.2399 26.68 25.5299 26.97L27.5299 28.97C27.8199 29.26 27.8199 29.74 27.5299 30.03C27.3799 30.18 27.1899 30.25 26.9999 30.25Z" fill="#292D32"/>
<path d="M31 39.25H25C19.57 39.25 17.25 36.93 17.25 31.5V25.5C17.25 20.07 19.57 17.75 25 17.75H30C30.41 17.75 30.75 18.09 30.75 18.5C30.75 18.91 30.41 19.25 30 19.25H25C20.39 19.25 18.75 20.89 18.75 25.5V31.5C18.75 36.11 20.39 37.75 25 37.75H31C35.61 37.75 37.25 36.11 37.25 31.5V26.5C37.25 26.09 37.59 25.75 38 25.75C38.41 25.75 38.75 26.09 38.75 26.5V31.5C38.75 36.93 36.43 39.25 31 39.25Z" fill="#292D32"/>
<path d="M38 27.25H34C30.58 27.25 29.25 25.92 29.25 22.5V18.5C29.25 18.2 29.43 17.92 29.71 17.81C29.99 17.69 30.31 17.76 30.53 17.97L38.53 25.97C38.74 26.18 38.81 26.51 38.69 26.79C38.57 27.07 38.3 27.25 38 27.25ZM30.75 20.31V22.5C30.75 25.08 31.42 25.75 34 25.75H36.19L30.75 20.31Z" fill="#292D32"/>
</svg>
