<svg width="100" height="100" viewBox="0 0 100 100" fill="none" xmlns="http://www.w3.org/2000/svg">
<circle cx="50" cy="50" r="50" fill="#E7F6EC"/>
<path fill-rule="evenodd" clip-rule="evenodd" d="M50 74C63.2548 74 74 63.2548 74 50C74 36.7452 63.2548 26 50 26C36.7452 26 26 36.7452 26 50C26 63.2548 36.7452 74 50 74ZM59.8011 46.6332C60.8872 45.6385 60.9612 43.9517 59.9665 42.8656C58.9718 41.7795 57.285 41.7054 56.1989 42.7001L46.3534 51.7173L43.8011 49.3797C42.715 48.385 41.0282 48.4591 40.0335 49.5452C39.0388 50.6312 39.1128 52.3181 40.1989 53.3128L44.5523 57.2999C45.5716 58.2334 47.1352 58.2334 48.1545 57.2999L59.8011 46.6332Z" fill="#2FC08B"/>
</svg>
