<svg width="24" height="25" viewBox="0 0 24 25" fill="none" xmlns="http://www.w3.org/2000/svg">
<path d="M21 7.82098H3C2.59 7.82098 2.25 7.48098 2.25 7.07098C2.25 6.66098 2.59 6.32098 3 6.32098H21C21.41 6.32098 21.75 6.66098 21.75 7.07098C21.75 7.48098 21.41 7.82098 21 7.82098Z" fill="#1E3A8A"/>
<path d="M21 12.821H3C2.59 12.821 2.25 12.481 2.25 12.071C2.25 11.661 2.59 11.321 3 11.321H21C21.41 11.321 21.75 11.661 21.75 12.071C21.75 12.481 21.41 12.821 21 12.821Z" fill="#1E3A8A"/>
<path d="M21 17.821H3C2.59 17.821 2.25 17.481 2.25 17.071C2.25 16.661 2.59 16.321 3 16.321H21C21.41 16.321 21.75 16.661 21.75 17.071C21.75 17.481 21.41 17.821 21 17.821Z" fill="#1E3A8A"/>
</svg>
