<svg width="42" height="45" viewBox="0 0 42 45" fill="none" xmlns="http://www.w3.org/2000/svg">
<path fill-rule="evenodd" clip-rule="evenodd" d="M3.92945 0.0999756C3.04803 0.0999756 2.3335 0.814509 2.3335 1.69593V43.304C2.3335 44.1854 3.04803 44.9 3.92945 44.9H38.0709C38.9523 44.9 39.6668 44.1854 39.6668 43.304V1.69593C39.6668 1.68728 39.6668 1.67864 39.6666 1.67002V7.56664L32.2 0.0999756H3.92945Z" fill="#E4E7EC"/>
<path fill-rule="evenodd" clip-rule="evenodd" d="M32.2002 0.0999756V7.56664H39.6669L32.2002 0.0999756Z" fill="#98A2B3"/>
<rect x="0.466309" y="18.7667" width="41.0667" height="18.6667" rx="1.59595" fill="#1E3A8A"/>
<path d="M9.2915 32.7428V23.4573H12.7736C13.4869 23.4573 14.0854 23.5903 14.569 23.8563C15.0557 24.1223 15.4229 24.488 15.6708 24.9535C15.9217 25.4159 16.0471 25.9419 16.0471 26.5313C16.0471 27.1268 15.9217 27.6557 15.6708 28.1182C15.4199 28.5806 15.0496 28.9449 14.56 29.2109C14.0703 29.4738 13.4673 29.6053 12.7509 29.6053H10.4431V28.2225H12.5242C12.9413 28.2225 13.2829 28.1499 13.5489 28.0048C13.8149 27.8597 14.0114 27.6603 14.1383 27.4064C14.2683 27.1525 14.3333 26.8608 14.3333 26.5313C14.3333 26.2018 14.2683 25.9117 14.1383 25.6608C14.0114 25.4099 13.8134 25.2149 13.5444 25.0759C13.2784 24.9338 12.9353 24.8628 12.5151 24.8628H10.9736V32.7428H9.2915Z" fill="#E8E8E8"/>
<path d="M20.6547 32.7428H17.5082V23.4573H20.7182C21.6401 23.4573 22.432 23.6432 23.094 24.015C23.759 24.3837 24.2698 24.9142 24.6265 25.6064C24.9832 26.2986 25.1615 27.1268 25.1615 28.091C25.1615 29.0582 24.9816 29.8895 24.622 30.5847C24.2653 31.2799 23.7499 31.8134 23.0759 32.1851C22.4048 32.5569 21.5978 32.7428 20.6547 32.7428ZM19.1903 31.2874H20.5731C21.22 31.2874 21.7595 31.1695 22.1917 30.9338C22.624 30.695 22.9489 30.3398 23.1666 29.8683C23.3842 29.3937 23.493 28.8013 23.493 28.091C23.493 27.3807 23.3842 26.7912 23.1666 26.3227C22.9489 25.8512 22.627 25.4991 22.2008 25.2663C21.7776 25.0306 21.2517 24.9127 20.623 24.9127H19.1903V31.2874Z" fill="#E8E8E8"/>
<path d="M26.7597 32.7428V23.4573H32.7083V24.8673H28.4418V27.3882H32.3002V28.7983H28.4418V32.7428H26.7597Z" fill="#E8E8E8"/>
</svg>
