<svg width="120" height="121" viewBox="0 0 120 121" fill="none" xmlns="http://www.w3.org/2000/svg">
<rect x="0.5" y="1" width="119" height="119" rx="59.5" stroke="#868D96"/>
<path d="M60.3203 64.58C60.2669 64.58 60.1869 64.58 60.1336 64.58C60.0536 64.58 59.9469 64.58 59.8669 64.58C53.8136 64.3933 49.2803 59.6733 49.2803 53.86C49.2803 47.94 54.1069 43.1133 60.0269 43.1133C65.9469 43.1133 70.7736 47.94 70.7736 53.86C70.7469 59.7 66.1869 64.3933 60.4003 64.58C60.3469 64.58 60.3469 64.58 60.3203 64.58ZM60.0003 47.0867C56.2669 47.0867 53.2536 50.1267 53.2536 53.8333C53.2536 57.4867 56.1069 60.4467 59.7336 60.58C59.8136 60.5533 60.0803 60.5533 60.3469 60.58C63.9203 60.3933 66.7203 57.46 66.7469 53.8333C66.7469 50.1267 63.7336 47.0867 60.0003 47.0867Z" fill="#4B5563"/>
<path d="M59.9999 89.1666C52.8266 89.1666 45.9732 86.5 40.6666 81.6466C40.1866 81.22 39.9732 80.58 40.0266 79.9666C40.3732 76.7933 42.3466 73.8333 45.6266 71.6466C53.5732 66.3666 66.4532 66.3666 74.3732 71.6466C77.6532 73.86 79.6266 76.7933 79.9732 79.9666C80.0532 80.6066 79.8132 81.22 79.3332 81.6466C74.0266 86.5 67.1732 89.1666 59.9999 89.1666ZM44.2132 79.4333C48.6399 83.14 54.2132 85.1666 59.9999 85.1666C65.7866 85.1666 71.3599 83.14 75.7866 79.4333C75.3066 77.8066 74.0266 76.2333 72.1332 74.9533C65.5732 70.58 54.4532 70.58 47.8399 74.9533C45.9466 76.2333 44.6932 77.8066 44.2132 79.4333Z" fill="#4B5563"/>
<path d="M59.9997 89.1666C44.1863 89.1666 31.333 76.3133 31.333 60.5C31.333 44.6866 44.1863 31.8333 59.9997 31.8333C75.813 31.8333 88.6663 44.6866 88.6663 60.5C88.6663 76.3133 75.813 89.1666 59.9997 89.1666ZM59.9997 35.8333C46.3997 35.8333 35.333 46.9 35.333 60.5C35.333 74.1 46.3997 85.1666 59.9997 85.1666C73.5997 85.1666 84.6663 74.1 84.6663 60.5C84.6663 46.9 73.5997 35.8333 59.9997 35.8333Z" fill="#4B5563"/>
</svg>
