<svg width="24" height="25" viewBox="0 0 24 25" fill="none" xmlns="http://www.w3.org/2000/svg">
<path d="M21.0002 7.22998C20.9802 7.22998 20.9502 7.22998 20.9202 7.22998C15.6302 6.69998 10.3502 6.49998 5.12016 7.02998L3.08016 7.22998C2.66016 7.26998 2.29016 6.96998 2.25016 6.54998C2.21016 6.12998 2.51016 5.76998 2.92016 5.72998L4.96016 5.52998C10.2802 4.98998 15.6702 5.19998 21.0702 5.72998C21.4802 5.76998 21.7802 6.13998 21.7402 6.54998C21.7102 6.93998 21.3802 7.22998 21.0002 7.22998Z" fill="#EC2B2B"/>
<path d="M8.49977 6.22C8.45977 6.22 8.41977 6.22 8.36977 6.21C7.96977 6.14 7.68977 5.75 7.75977 5.35L7.97977 4.04C8.13977 3.08 8.35977 1.75 10.6898 1.75H13.3098C15.6498 1.75 15.8698 3.13 16.0198 4.05L16.2398 5.35C16.3098 5.76 16.0298 6.15 15.6298 6.21C15.2198 6.28 14.8298 6 14.7698 5.6L14.5498 4.3C14.4098 3.43 14.3798 3.26 13.3198 3.26H10.6998C9.63977 3.26 9.61977 3.4 9.46977 4.29L9.23977 5.59C9.17977 5.96 8.85977 6.22 8.49977 6.22Z" fill="#EC2B2B"/>
<path d="M15.2099 23.25H8.7899C5.2999 23.25 5.1599 21.32 5.0499 19.76L4.3999 9.69001C4.3699 9.28001 4.6899 8.92001 5.0999 8.89001C5.5199 8.87001 5.8699 9.18001 5.8999 9.59001L6.5499 19.66C6.6599 21.18 6.6999 21.75 8.7899 21.75H15.2099C17.3099 21.75 17.3499 21.18 17.4499 19.66L18.0999 9.59001C18.1299 9.18001 18.4899 8.87001 18.8999 8.89001C19.3099 8.92001 19.6299 9.27001 19.5999 9.69001L18.9499 19.76C18.8399 21.32 18.6999 23.25 15.2099 23.25Z" fill="#EC2B2B"/>
<path d="M13.6601 17.75H10.3301C9.92008 17.75 9.58008 17.41 9.58008 17C9.58008 16.59 9.92008 16.25 10.3301 16.25H13.6601C14.0701 16.25 14.4101 16.59 14.4101 17C14.4101 17.41 14.0701 17.75 13.6601 17.75Z" fill="#EC2B2B"/>
<path d="M14.5 13.75H9.5C9.09 13.75 8.75 13.41 8.75 13C8.75 12.59 9.09 12.25 9.5 12.25H14.5C14.91 12.25 15.25 12.59 15.25 13C15.25 13.41 14.91 13.75 14.5 13.75Z" fill="#EC2B2B"/>
</svg>
