<svg width="56" height="57" viewBox="0 0 56 57" fill="none" xmlns="http://www.w3.org/2000/svg">
<circle cx="28" cy="28.5" r="28" fill="#E7F6EC"/>
<path fill-rule="evenodd" clip-rule="evenodd" d="M28 41.625C35.2487 41.625 41.125 35.7487 41.125 28.5C41.125 21.2513 35.2487 15.375 28 15.375C20.7513 15.375 14.875 21.2513 14.875 28.5C14.875 35.7487 20.7513 41.625 28 41.625ZM33.36 26.6588C33.9539 26.1148 33.9944 25.1923 33.4505 24.5984C32.9065 24.0044 31.984 23.9639 31.39 24.5079L26.0058 29.4391L24.61 28.1608C24.016 27.6168 23.0935 27.6573 22.5496 28.2513C22.0056 28.8452 22.0461 29.7677 22.64 30.3117L25.0208 32.4921C25.5782 33.0026 26.4333 33.0026 26.9907 32.4921L33.36 26.6588Z" fill="#2FC08B"/>
</svg>
