<svg width="24" height="25" viewBox="0 0 24 25" fill="none" xmlns="http://www.w3.org/2000/svg">
<path d="M13.028 2.74902C14.153 2.75202 14.724 2.75802 15.217 2.77202L15.411 2.77902C15.635 2.78702 15.856 2.79702 16.123 2.80902C17.187 2.85902 17.913 3.02702 18.55 3.27402C19.21 3.52802 19.766 3.87202 20.322 4.42702C20.8305 4.92692 21.224 5.53161 21.475 6.19902C21.722 6.83602 21.89 7.56202 21.94 8.62702C21.952 8.89302 21.962 9.11402 21.97 9.33902L21.976 9.53302C21.991 10.025 21.997 10.596 21.999 11.721L22 12.467V13.777C22.0025 14.5064 21.9948 15.2358 21.977 15.965L21.971 16.159C21.963 16.384 21.953 16.605 21.941 16.871C21.891 17.936 21.721 18.661 21.475 19.299C21.2247 19.9668 20.8311 20.5716 20.322 21.071C19.822 21.5793 19.2173 21.9728 18.55 22.224C17.913 22.471 17.187 22.639 16.123 22.689C15.8857 22.7002 15.6484 22.7102 15.411 22.719L15.217 22.725C14.724 22.739 14.153 22.746 13.028 22.748L12.282 22.749H10.973C10.2433 22.7515 9.51352 22.7439 8.784 22.726L8.59 22.72C8.35261 22.711 8.11527 22.7007 7.878 22.689C6.814 22.639 6.088 22.471 5.45 22.224C4.78267 21.9734 4.17821 21.5799 3.679 21.071C3.17004 20.5713 2.77622 19.9666 2.525 19.299C2.278 18.662 2.11 17.936 2.06 16.871C2.04886 16.6337 2.03886 16.3964 2.03 16.159L2.025 15.965C2.00657 15.2358 1.99824 14.5064 2 13.777V11.721C1.99721 10.9916 2.00454 10.2622 2.022 9.53302L2.029 9.33902C2.037 9.11402 2.047 8.89302 2.059 8.62702C2.109 7.56202 2.277 6.83702 2.524 6.19902C2.77511 5.53093 3.16972 4.92605 3.68 4.42702C4.17909 3.9185 4.78314 3.52501 5.45 3.27402C6.088 3.02702 6.813 2.85902 7.878 2.80902C8.144 2.79702 8.366 2.78702 8.59 2.77902L8.784 2.77302C9.51319 2.75526 10.2426 2.74759 10.972 2.75002L13.028 2.74902ZM12 7.74902C10.6739 7.74902 9.40215 8.27581 8.46446 9.21349C7.52678 10.1512 7 11.4229 7 12.749C7 14.0751 7.52678 15.3469 8.46446 16.2846C9.40215 17.2222 10.6739 17.749 12 17.749C13.3261 17.749 14.5978 17.2222 15.5355 16.2846C16.4732 15.3469 17 14.0751 17 12.749C17 11.4229 16.4732 10.1512 15.5355 9.21349C14.5978 8.27581 13.3261 7.74902 12 7.74902ZM12 9.74902C12.394 9.74896 12.7841 9.82649 13.1481 9.97719C13.5121 10.1279 13.8428 10.3488 14.1215 10.6273C14.4001 10.9059 14.6211 11.2366 14.7719 11.6005C14.9228 11.9645 15.0004 12.3546 15.0005 12.7485C15.0006 13.1425 14.923 13.5326 14.7723 13.8966C14.6216 14.2606 14.4007 14.5914 14.1222 14.87C13.8436 15.1486 13.513 15.3696 13.149 15.5205C12.7851 15.6713 12.395 15.749 12.001 15.749C11.2053 15.749 10.4423 15.433 9.87968 14.8703C9.31707 14.3077 9.001 13.5447 9.001 12.749C9.001 11.9534 9.31707 11.1903 9.87968 10.6277C10.4423 10.0651 11.2053 9.74902 12.001 9.74902M17.251 6.24902C16.9195 6.24902 16.6015 6.38072 16.3671 6.61514C16.1327 6.84956 16.001 7.1675 16.001 7.49902C16.001 7.83054 16.1327 8.14849 16.3671 8.38291C16.6015 8.61733 16.9195 8.74902 17.251 8.74902C17.5825 8.74902 17.9005 8.61733 18.1349 8.38291C18.3693 8.14849 18.501 7.83054 18.501 7.49902C18.501 7.1675 18.3693 6.84956 18.1349 6.61514C17.9005 6.38072 17.5825 6.24902 17.251 6.24902Z" fill="white"/>
</svg>
