<svg width="24" height="25" viewBox="0 0 24 25" fill="none" xmlns="http://www.w3.org/2000/svg">
<g clip-path="url(#clip0_30_482)">
<path fill-rule="evenodd" clip-rule="evenodd" d="M18 3.74902C18.7956 3.74902 19.5587 4.06509 20.1213 4.6277C20.6839 5.19031 21 5.95337 21 6.74902V18.749C21 19.5447 20.6839 20.3077 20.1213 20.8703C19.5587 21.433 18.7956 21.749 18 21.749H6C5.20435 21.749 4.44129 21.433 3.87868 20.8703C3.31607 20.3077 3 19.5447 3 18.749V6.74902C3 5.95337 3.31607 5.19031 3.87868 4.6277C4.44129 4.06509 5.20435 3.74902 6 3.74902H18ZM8 10.749C7.73478 10.749 7.48043 10.8544 7.29289 11.0419C7.10536 11.2295 7 11.4838 7 11.749V16.749C7 17.0142 7.10536 17.2686 7.29289 17.4561C7.48043 17.6437 7.73478 17.749 8 17.749C8.26522 17.749 8.51957 17.6437 8.70711 17.4561C8.89464 17.2686 9 17.0142 9 16.749V11.749C9 11.4838 8.89464 11.2295 8.70711 11.0419C8.51957 10.8544 8.26522 10.749 8 10.749ZM11 9.74902C10.7348 9.74902 10.4804 9.85438 10.2929 10.0419C10.1054 10.2295 10 10.4838 10 10.749V16.749C10 17.0142 10.1054 17.2686 10.2929 17.4561C10.4804 17.6437 10.7348 17.749 11 17.749C11.2652 17.749 11.5196 17.6437 11.7071 17.4561C11.8946 17.2686 12 17.0142 12 16.749V13.089C12.305 12.745 12.82 12.341 13.393 12.096C13.726 11.954 14.227 11.896 14.575 12.006C14.6904 12.0353 14.7933 12.1013 14.868 12.194C14.92 12.264 15 12.42 15 12.749V16.749C15 17.0142 15.1054 17.2686 15.2929 17.4561C15.4804 17.6437 15.7348 17.749 16 17.749C16.2652 17.749 16.5196 17.6437 16.7071 17.4561C16.8946 17.2686 17 17.0142 17 16.749V12.749C17 12.079 16.83 11.483 16.476 11.005C16.1503 10.5716 15.6944 10.2537 15.175 10.098C14.273 9.81502 13.274 9.97202 12.607 10.258C12.3933 10.3495 12.1852 10.4537 11.984 10.57C11.9421 10.3396 11.8206 10.1312 11.6408 9.98119C11.461 9.83115 11.2342 9.74899 11 9.74902ZM8 7.74902C7.73478 7.74902 7.48043 7.85438 7.29289 8.04192C7.10536 8.22945 7 8.48381 7 8.74902C7 9.01424 7.10536 9.26859 7.29289 9.45613C7.48043 9.64367 7.73478 9.74902 8 9.74902C8.26522 9.74902 8.51957 9.64367 8.70711 9.45613C8.89464 9.26859 9 9.01424 9 8.74902C9 8.48381 8.89464 8.22945 8.70711 8.04192C8.51957 7.85438 8.26522 7.74902 8 7.74902Z" fill="white"/>
</g>
<defs>
<clipPath id="clip0_30_482">
<rect width="24" height="24" fill="white" transform="translate(0 0.749023)"/>
</clipPath>
</defs>
</svg>
